<svg xmlns="http://www.w3.org/2000/svg" width="24.375" height="23.563" viewBox="0 0 24.375 23.563">
  <path id="Path_6977" data-name="Path 6977" d="M23.969-.406h-.406V-3.25a1.219,1.219,0,0,0-1.219-1.219h-.812v-7.719H19.094v7.719H16.656v-7.719H14.219v7.719H11.781v-7.719H9.344v7.719H6.906v-7.719H4.469v7.719H3.656A1.219,1.219,0,0,0,2.438-3.25V-.406H2.031A1.219,1.219,0,0,0,.813.813v.813a.406.406,0,0,0,.406.406H24.781a.406.406,0,0,0,.406-.406V.813A1.219,1.219,0,0,0,23.969-.406Zm-2.844,0H4.875V-2.031h16.25Zm3.67-16.4-11.024-4.6A2.919,2.919,0,0,0,13-21.531a2.919,2.919,0,0,0-.771.125l-11.024,4.6a.655.655,0,0,0-.393.57h0v1.408a.609.609,0,0,0,.609.609H2.438v.609A.609.609,0,0,0,3.047-13H22.953a.609.609,0,0,0,.609-.609v-.609h1.016a.609.609,0,0,0,.609-.609v-1.408A.609.609,0,0,0,24.795-16.806ZM3.25-15.437,13-19.094l9.75,3.656Z" transform="translate(-0.813 21.531)" fill="#0e3b6e"/>
</svg>
