<svg xmlns="http://www.w3.org/2000/svg" width="12.25" height="14" viewBox="0 0 12.25 14"><path d="M2.625-9.625c.485,0,.875-.369.875-1.094s-.547-1.531-.875-1.531c0,1.121-.875.9-.875,1.75A.872.872,0,0,0,2.625-9.625Zm3.5,0c.485,0,.875-.369.875-1.094s-.547-1.531-.875-1.531c0,1.121-.875.9-.875,1.75A.872.872,0,0,0,6.125-9.625Zm3.5,0c.485,0,.875-.369.875-1.094s-.547-1.531-.875-1.531c0,1.121-.875.9-.875,1.75A.872.872,0,0,0,9.625-9.625ZM10.938-5.25h-.875V-9.187H9.188V-5.25H6.563V-9.187H5.688V-5.25H3.063V-9.187H2.188V-5.25H1.313A1.313,1.313,0,0,0,0-3.937V1.75H12.25V-3.937A1.313,1.313,0,0,0,10.938-5.25ZM11.375.875H.875v-1.97c.444-.259.654-.655,1.169-.655.764,0,.855.875,2.044.875,1.171,0,1.291-.875,2.037-.875.77,0,.853.875,2.044.875s1.279-.875,2.044-.875c.506,0,.718.4,1.162.655Zm0-3.073a1.668,1.668,0,0,0-1.162-.427c-1.188,0-1.28.875-2.044.875s-.86-.875-2.044-.875-1.291.875-2.037.875c-.77,0-.853-.875-2.044-.875A1.677,1.677,0,0,0,.875-2.2V-3.937a.438.438,0,0,1,.438-.437h9.625a.438.438,0,0,1,.438.438Z" transform="translate(0 12.25)" fill="#0e3b6e"/></svg>