<svg xmlns="http://www.w3.org/2000/svg" width="13" height="13" viewBox="0 0 13 13"><path d="M12.386-10.763l-2.559-.592a.8.8,0,0,0-.909.46L7.737-8.14a.8.8,0,0,0,.226.927l1.369,1.12A8.886,8.886,0,0,1,5.279-2.041L4.159-3.41a.8.8,0,0,0-.927-.226L.48-2.455a.792.792,0,0,0-.46.906L.609,1.008a.793.793,0,0,0,.774.617A11.614,11.614,0,0,0,13-9.991.788.788,0,0,0,12.386-10.763ZM1.4.813.815-1.716,3.542-2.884,5.053-1.036A9.811,9.811,0,0,0,10.337-6.32L8.488-7.83l1.168-2.727,2.529.584A10.8,10.8,0,0,1,1.4.813Z" transform="translate(0 11.375)" fill="#0e3b6e" opacity="0.8"/></svg>