<svg xmlns="http://www.w3.org/2000/svg" width="15" height="15" viewBox="0 0 15 15">
  <path id="Path_6825" data-name="Path 6825" d="M2.231-9l5.049-5.049a.749.749,0,0,0,0-1.058L6.107-16.281a.749.749,0,0,0-1.058,0L0-11.231l-5.049-5.049a.749.749,0,0,0-1.058,0l-1.173,1.173a.749.749,0,0,0,0,1.058L-2.231-9-7.281-3.951a.749.749,0,0,0,0,1.058l1.173,1.173a.749.749,0,0,0,1.058,0L0-6.769,5.049-1.719a.749.749,0,0,0,1.058,0L7.281-2.893a.749.749,0,0,0,0-1.058Z" transform="translate(7.5 16.5)" fill="#0e3b6e"/>
</svg>
