<svg xmlns="http://www.w3.org/2000/svg" width="29.25" height="22.75" viewBox="0 0 29.25 22.75">
  <path id="Path_6976" data-name="Path 6976" d="M26.807-21.125H2.443A2.439,2.439,0,0,0,0-18.687V-.812A2.439,2.439,0,0,0,2.443,1.625H26.807A2.439,2.439,0,0,0,29.25-.812V-18.687A2.439,2.439,0,0,0,26.807-21.125ZM2.747-18.687H26.5a.306.306,0,0,1,.3.3v2.133H2.443v-2.133A.306.306,0,0,1,2.747-18.687ZM26.5-.812H2.747a.306.306,0,0,1-.3-.3V-9.75H26.807v8.633A.306.306,0,0,1,26.5-.812ZM9.75-5.891A.611.611,0,0,0,9.141-6.5H5.484a.611.611,0,0,0-.609.609v2.031a.611.611,0,0,0,.609.609H9.141a.611.611,0,0,0,.609-.609Zm9.75,0a.611.611,0,0,0-.609-.609H11.984a.611.611,0,0,0-.609.609v2.031a.611.611,0,0,0,.609.609h6.906a.611.611,0,0,0,.609-.609Z" transform="translate(0 21.125)" fill="#0e3b6e"/>
</svg>
