<svg xmlns="http://www.w3.org/2000/svg" width="28.682" height="26.013" viewBox="0 0 28.682 26.013">
  <g id="save" transform="translate(0.125 -4.361)">
    <g id="Group_134" data-name="Group 134" transform="translate(0 8.547)">
      <g id="Group_133" data-name="Group 133">
        <path id="Path_5964" data-name="Path 5964" d="M27.015,128.655l-1.29-.162a8.869,8.869,0,0,0-1.656-2.615l.948-4.018a.555.555,0,0,0-.54-.683h-.123a3.826,3.826,0,0,0-3.551,2.443,8.733,8.733,0,0,0-1.214-.384.555.555,0,1,0-.256,1.081A7.69,7.69,0,0,1,23,126.359a.553.553,0,0,0,.135.138,7.728,7.728,0,0,1,1.669,2.7.555.555,0,0,0,.453.361l1.619.2a.508.508,0,0,1,.444.5v2.8a.508.508,0,0,1-.444.5l-1.5.188a.555.555,0,0,0-.461.385,7.7,7.7,0,0,1-2.446,3.637.555.555,0,0,0-.2.428v3.069a.5.5,0,0,1-.5.5H18.547a.5.5,0,0,1-.5-.5V140.1a.555.555,0,0,0-.555-.555H12.827a.555.555,0,0,0-.555.555v1.17a.5.5,0,0,1-.5.5H8.551a.5.5,0,0,1-.5-.5V139.1a.555.555,0,0,0-.29-.488,7.718,7.718,0,0,1,3.676-14.5h.7a.555.555,0,1,0,0-1.111h-.7a8.843,8.843,0,0,0-8.56,6.666H2.471a1.36,1.36,0,0,1,0-2.721.555.555,0,0,0,0-1.111,2.471,2.471,0,0,0,0,4.942h.2a8.829,8.829,0,0,0,4.268,8.649v1.844a1.612,1.612,0,0,0,1.61,1.61h3.221a1.612,1.612,0,0,0,1.61-1.61v-.614h3.555v.614a1.612,1.612,0,0,0,1.61,1.61h3.221a1.612,1.612,0,0,0,1.61-1.61v-2.813a8.809,8.809,0,0,0,2.482-3.647l1.154-.145a1.62,1.62,0,0,0,1.417-1.605v-2.8A1.62,1.62,0,0,0,27.015,128.655ZM23.137,125a8.854,8.854,0,0,0-1.325-.9,2.711,2.711,0,0,1,1.948-1.742Z" transform="translate(0 -121.178)" fill="#4891e5" stroke="#4891e5" stroke-width="0.25"/>
      </g>
    </g>
    <g id="Group_136" data-name="Group 136" transform="translate(21.157 15.756)">
      <g id="Group_135" data-name="Group 135">
        <path id="Path_5965" data-name="Path 5965" d="M381.949,251.163a.555.555,0,1,0,.163.393A.559.559,0,0,0,381.949,251.163Z" transform="translate(-381.001 -251)" fill="#4891e5" stroke="#4891e5" stroke-width="0.25"/>
      </g>
    </g>
    <g id="Group_138" data-name="Group 138" transform="translate(15.729 5.057)">
      <g id="Group_137" data-name="Group 137">
        <path id="Path_5966" data-name="Path 5966" d="M283.8,58.333a.555.555,0,0,0-.555.555v2.2a.555.555,0,0,0,1.111,0v-2.2A.555.555,0,0,0,283.8,58.333Z" transform="translate(-283.242 -58.333)" fill="#4891e5" stroke="#4891e5" stroke-width="0.25"/>
      </g>
    </g>
    <g id="Group_144" data-name="Group 144" transform="translate(5.216 18.642)">
      <g id="Group_143" data-name="Group 143">
        <path id="Path_5969" data-name="Path 5969" d="M95.049,303.524a.555.555,0,0,0-1.111,0v.03a.555.555,0,0,0,.555.552h0a.555.555,0,0,0,.552-.559Z" transform="translate(-93.938 -302.969)" fill="#4891e5" stroke="#4891e5" stroke-width="0.25"/>
      </g>
    </g>
    <g id="Group_146" data-name="Group 146" transform="translate(5.589 20.668)">
      <g id="Group_145" data-name="Group 145">
        <path id="Path_5970" data-name="Path 5970" d="M103.852,342.358a5.147,5.147,0,0,1-2.122-2.541.555.555,0,0,0-1.037.4,6.263,6.263,0,0,0,2.581,3.093.555.555,0,1,0,.577-.949Z" transform="translate(-100.656 -339.46)" fill="#4891e5" stroke="#4891e5" stroke-width="0.25"/>
      </g>
    </g>
    <g id="Group_148" data-name="Group 148" transform="translate(9.44 4.486)">
      <g id="Group_147" data-name="Group 147">
        <path id="Path_5971" data-name="Path 5971" d="M172.332,48.052a2.332,2.332,0,1,0,2.332,2.332A2.335,2.335,0,0,0,172.332,48.052Zm0,3.554a1.222,1.222,0,1,1,1.222-1.222A1.223,1.223,0,0,1,172.332,51.606Z" transform="translate(-170 -48.052)" fill="#4891e5" stroke="#4891e5" stroke-width="0.25"/>
      </g>
    </g>
    <g id="Group_150" data-name="Group 150" transform="translate(10.995 10.036)">
      <g id="Group_149" data-name="Group 149">
        <path id="Path_5972" data-name="Path 5972" d="M205.774,151.554h-.5a2.332,2.332,0,1,0-3.971,0h-2.748a.555.555,0,1,0,0,1.111h7.219a.555.555,0,0,0,0-1.111Zm-2.485,0a1.222,1.222,0,1,1,1.222-1.222A1.223,1.223,0,0,1,203.289,151.554Z" transform="translate(-198 -148)" fill="#4891e5" stroke="#4891e5" stroke-width="0.25"/>
      </g>
    </g>
  </g>
</svg>
