<svg xmlns="http://www.w3.org/2000/svg" width="28.682" height="21.953" viewBox="0 0 28.682 21.953"><path d="M27.015,128.655l-1.29-.162a8.869,8.869,0,0,0-1.656-2.615l.948-4.018a.555.555,0,0,0-.54-.683h-.123a3.826,3.826,0,0,0-3.551,2.443,8.733,8.733,0,0,0-1.214-.384.555.555,0,1,0-.256,1.081A7.69,7.69,0,0,1,23,126.359a.553.553,0,0,0,.135.138,7.728,7.728,0,0,1,1.669,2.7.555.555,0,0,0,.453.361l1.619.2a.508.508,0,0,1,.444.5v2.8a.508.508,0,0,1-.444.5l-1.5.188a.555.555,0,0,0-.461.385,7.7,7.7,0,0,1-2.446,3.637.555.555,0,0,0-.2.428v3.069a.5.5,0,0,1-.5.5H18.547a.5.5,0,0,1-.5-.5V140.1a.555.555,0,0,0-.555-.555H12.827a.555.555,0,0,0-.555.555v1.17a.5.5,0,0,1-.5.5H8.551a.5.5,0,0,1-.5-.5V139.1a.555.555,0,0,0-.29-.488,7.718,7.718,0,0,1,3.676-14.5h.7a.555.555,0,1,0,0-1.111h-.7a8.843,8.843,0,0,0-8.56,6.666H2.471a1.36,1.36,0,0,1,0-2.721.555.555,0,0,0,0-1.111,2.471,2.471,0,0,0,0,4.942h.2a8.829,8.829,0,0,0,4.268,8.649v1.844a1.612,1.612,0,0,0,1.61,1.61h3.221a1.612,1.612,0,0,0,1.61-1.61v-.614h3.555v.614a1.612,1.612,0,0,0,1.61,1.61h3.221a1.612,1.612,0,0,0,1.61-1.61v-2.813a8.809,8.809,0,0,0,2.482-3.647l1.154-.145a1.62,1.62,0,0,0,1.417-1.605v-2.8A1.62,1.62,0,0,0,27.015,128.655ZM23.137,125a8.854,8.854,0,0,0-1.325-.9,2.711,2.711,0,0,1,1.948-1.742Z" transform="translate(0.125 -121.053)" fill="#0e3b6e" stroke="#0e3b6e" stroke-width="0.25"/></svg>