<svg xmlns="http://www.w3.org/2000/svg" width="42.366" height="42.367" viewBox="0 0 42.366 42.367">
  <path id="Path_6974" data-name="Path 6974" d="M.3-38.629,14.56-52.891a2.115,2.115,0,0,0,0-2.99l-3.314-3.314a2.115,2.115,0,0,0-2.99,0L-6-44.931-20.266-59.193a2.115,2.115,0,0,0-2.99,0l-3.313,3.313a2.115,2.115,0,0,0,0,2.99l14.262,14.262L-26.568-24.368a2.115,2.115,0,0,0,0,2.99l3.314,3.314a2.115,2.115,0,0,0,2.99,0L-6-32.327,8.258-18.065a2.115,2.115,0,0,0,2.99,0l3.314-3.314a2.115,2.115,0,0,0,0-2.99Z" transform="translate(27.186 59.813)" fill="#fff"/>
</svg>
