<svg xmlns="http://www.w3.org/2000/svg" width="20.898" height="20.002" viewBox="0 0 20.898 20.002">
  <path id="Path_6812" data-name="Path 6812" d="M9.379-10.8l-5.707-.832L1.121-16.8a1.251,1.251,0,0,0-2.242,0l-2.551,5.172-5.707.832a1.251,1.251,0,0,0-.691,2.133l4.129,4.023-.977,5.684A1.249,1.249,0,0,0-5.105,2.355L0-.328,5.105,2.355A1.25,1.25,0,0,0,6.918,1.039L5.941-4.645,10.07-8.668A1.251,1.251,0,0,0,9.379-10.8ZM3.93-5.3,4.855.105,0-2.445-4.855.105-3.93-5.3l-3.93-3.828,5.43-.789L0-14.84,2.43-9.918l5.43.789Z" transform="translate(10.449 17.5)" fill="#0e3b6e"/>
</svg>
