<svg xmlns="http://www.w3.org/2000/svg" width="11.375" height="13" viewBox="0 0 11.375 13"><path d="M5.688-.711A.509.509,0,0,0,6.2-1.219V-2.844a.509.509,0,0,0-.508-.508.509.509,0,0,0-.508.508v1.625A.509.509,0,0,0,5.688-.711Zm5.688-3.758a1.219,1.219,0,0,0-1.219-1.219H9.75V-7.274a4.088,4.088,0,0,0-4.05-4.1A4.066,4.066,0,0,0,1.625-7.312v1.625H1.219A1.219,1.219,0,0,0,0-4.469V.406A1.219,1.219,0,0,0,1.219,1.625h8.938A1.219,1.219,0,0,0,11.375.406ZM2.438-5.687V-7.312a3.253,3.253,0,0,1,3.25-3.25,3.253,3.253,0,0,1,3.25,3.25v1.625ZM10.563.406a.407.407,0,0,1-.406.406H1.219A.407.407,0,0,1,.813.406V-4.469a.407.407,0,0,1,.406-.406h8.938a.407.407,0,0,1,.406.406Z" transform="translate(0 11.375)" fill="#0e3b6e" opacity="0.8"/></svg>