<svg xmlns="http://www.w3.org/2000/svg" width="20.001" height="15" viewBox="0 0 20.001 15">
  <path id="Path_6811" data-name="Path 6811" d="M-6.25-15A3.751,3.751,0,0,0-10-11.25v7.5A3.751,3.751,0,0,0-6.25,0h3.281A.47.47,0,0,0-2.5-.469v-.937a.47.47,0,0,0-.469-.469H-6.25A1.875,1.875,0,0,1-8.125-3.75v-7.5A1.875,1.875,0,0,1-6.25-13.125h3.281a.47.47,0,0,0,.469-.469v-.937A.47.47,0,0,0-2.969-15Zm9.027.762-.766.766a.464.464,0,0,0,.008.668L6.437-8.516H-3.281a.47.47,0,0,0-.469.469v1.094a.47.47,0,0,0,.469.469H6.437L2.02-2.2a.47.47,0,0,0-.008.668l.766.766a.469.469,0,0,0,.664,0L9.863-7.172a.469.469,0,0,0,0-.664L3.441-14.242A.473.473,0,0,0,2.777-14.238Z" transform="translate(10 15)" fill="#0e3b6e"/>
</svg>
