<svg xmlns="http://www.w3.org/2000/svg" width="13.563" height="13.563" viewBox="0 0 13.563 13.563"><path d="M6.781-12.031A6.78,6.78,0,0,0,0-5.25,6.78,6.78,0,0,0,6.781,1.531,6.78,6.78,0,0,0,13.563-5.25,6.78,6.78,0,0,0,6.781-12.031Zm5.283,4.156H9.808a7.957,7.957,0,0,0-1.181-2.983A5.932,5.932,0,0,1,12.064-7.875ZM9.188-5.25A12.923,12.923,0,0,1,9.07-3.5H4.493a12.923,12.923,0,0,1-.118-1.75A12.923,12.923,0,0,1,4.493-7H9.07A12.923,12.923,0,0,1,9.188-5.25ZM6.781-11.156c.736,0,1.679,1.206,2.136,3.281H4.646C5.1-9.95,6.046-11.156,6.781-11.156Zm-1.846.3A7.965,7.965,0,0,0,3.754-7.875H1.5A5.932,5.932,0,0,1,4.936-10.858ZM.875-5.25A5.869,5.869,0,0,1,1.14-7H3.615A13.864,13.864,0,0,0,3.5-5.25,13.374,13.374,0,0,0,3.615-3.5H1.14A5.869,5.869,0,0,1,.875-5.25ZM1.5-2.625H3.754A7.957,7.957,0,0,0,4.936.358,5.932,5.932,0,0,1,1.5-2.625ZM6.781.656C6.046.656,5.1-.55,4.646-2.625H8.917C8.46-.55,7.517.656,6.781.656Zm1.846-.3A7.965,7.965,0,0,0,9.808-2.625h2.256A5.932,5.932,0,0,1,8.627.358ZM9.948-3.5a13.864,13.864,0,0,0,.115-1.75A13.374,13.374,0,0,0,9.948-7h2.475a5.869,5.869,0,0,1,.265,1.75,5.869,5.869,0,0,1-.265,1.75Z" transform="translate(0 12.031)" fill="#0e3b6e"/></svg>