<svg xmlns="http://www.w3.org/2000/svg" width="16.125" height="10.75" viewBox="0 0 16.125 10.75"><path d="M8.062-3.479A1.792,1.792,0,0,0,9.854-5.271,1.792,1.792,0,0,0,8.062-7.062c-.028,0-.053.007-.08.008a1.59,1.59,0,0,1,.08.454,1.33,1.33,0,0,1-1.33,1.33,1.59,1.59,0,0,1-.454-.08c0,.028-.008.053-.008.08A1.792,1.792,0,0,0,8.062-3.479Zm7.965-1.3A8.979,8.979,0,0,0,8.062-9.75,8.98,8.98,0,0,0,.1-4.783a1.074,1.074,0,0,0-.1.409,1.074,1.074,0,0,0,.1.409A8.979,8.979,0,0,0,8.062,1a8.98,8.98,0,0,0,7.965-4.967,1.074,1.074,0,0,0,.1-.409A1.074,1.074,0,0,0,16.028-4.784ZM8.062-8.854a3.585,3.585,0,0,1,3.583,3.583A3.585,3.585,0,0,1,8.062-1.687,3.585,3.585,0,0,1,4.479-5.271,3.59,3.59,0,0,1,8.062-8.854ZM8.062.1A8.07,8.07,0,0,1,.9-4.375,9.647,9.647,0,0,1,4.529-8a4.438,4.438,0,0,0-.946,2.725A4.481,4.481,0,0,0,8.062-.792a4.481,4.481,0,0,0,4.479-4.479A4.438,4.438,0,0,0,11.6-8a9.647,9.647,0,0,1,3.633,3.621A8.069,8.069,0,0,1,8.062.1Z" transform="translate(0 9.75)" fill="#231e1e"/></svg>