<svg xmlns="http://www.w3.org/2000/svg" width="19.496" height="23.029" viewBox="0 0 19.496 23.029">
  <path id="Path_6978" data-name="Path 6978" d="M5.657-7.724c.295-1.584,1.62-1.193,3.824-1.229,3.433-.041,6.023-1.407,7.114-4.586,1.1-3.088.818-5.941-2.234-7.125-1.975-.767-2.625-.579-10.359-.579a1.031,1.031,0,0,0-1.016.858L.01-1.5a.617.617,0,0,0,.614.706H4.413c.1,0,.137-.036.152-.127C4.773-2.2,5.479-6.749,5.657-7.724Zm12.477-7.307c-.091-.066-.127-.091-.152.066a11.885,11.885,0,0,1-.447,1.706C15.509-7.48,9.892-7.983,7.15-7.983a.511.511,0,0,0-.553.477C5.449-.376,5.22,1.112,5.22,1.112a.541.541,0,0,0,.538.655H8.983a.911.911,0,0,0,.884-.757c.036-.274-.056.31.731-4.636.234-1.117.726-1,1.488-1,3.605,0,6.419-1.463,7.257-5.7C19.673-12.1,19.576-13.955,18.134-15.031Z" transform="translate(-0.004 21.262)" fill="#0e3b6e"/>
</svg>
