<svg xmlns="http://www.w3.org/2000/svg" width="24.997" height="20" viewBox="0 0 24.997 20">
  <path id="Path_6815" data-name="Path 6815" d="M.793.625H-10.625v-1A3.381,3.381,0,0,1-7.25-3.75a15.294,15.294,0,0,0,3.5.625A9.686,9.686,0,0,0-.621-3.688,7.165,7.165,0,0,1-.383-5.609C-1.5-5.555-1.98-5-3.75-5c-1.84,0-2.375-.625-3.5-.625A5.251,5.251,0,0,0-12.5-.375v1A1.875,1.875,0,0,0-10.625,2.5H2.734A7.512,7.512,0,0,1,.793.625ZM-3.75-6.25a5.626,5.626,0,0,0,5.625-5.625A5.626,5.626,0,0,0-3.75-17.5a5.626,5.626,0,0,0-5.625,5.625A5.626,5.626,0,0,0-3.75-6.25Zm0-9.375A3.756,3.756,0,0,1,0-11.875a3.756,3.756,0,0,1-3.75,3.75,3.756,3.756,0,0,1-3.75-3.75A3.756,3.756,0,0,1-3.75-15.625Zm15.1,12.707a4.583,4.583,0,0,0,0-1.664l1.008-.582a.283.283,0,0,0,.129-.332,5.861,5.861,0,0,0-1.3-2.242.285.285,0,0,0-.352-.055l-1.008.582a4.586,4.586,0,0,0-1.441-.832V-9.207a.284.284,0,0,0-.223-.277,5.894,5.894,0,0,0-2.586,0,.284.284,0,0,0-.223.277v1.164a4.586,4.586,0,0,0-1.441.832L2.906-7.793a.286.286,0,0,0-.352.055A5.862,5.862,0,0,0,1.258-5.5a.288.288,0,0,0,.129.332l1.008.582a4.583,4.583,0,0,0,0,1.664l-1.008.582A.283.283,0,0,0,1.258-2,5.891,5.891,0,0,0,2.555.238a.285.285,0,0,0,.352.055L3.914-.289A4.586,4.586,0,0,0,5.355.543V1.707a.284.284,0,0,0,.223.277,5.894,5.894,0,0,0,2.586,0,.284.284,0,0,0,.223-.277V.543A4.586,4.586,0,0,0,9.828-.289l1.008.582a.286.286,0,0,0,.352-.055A5.861,5.861,0,0,0,12.484-2a.288.288,0,0,0-.129-.332ZM6.875-1.855A1.9,1.9,0,0,1,4.98-3.75,1.9,1.9,0,0,1,6.875-5.645,1.9,1.9,0,0,1,8.77-3.75,1.9,1.9,0,0,1,6.875-1.855Z" transform="translate(12.5 17.5)" fill="#0e3b6e"/>
</svg>
