<svg xmlns="http://www.w3.org/2000/svg" width="32.5" height="22.75" viewBox="0 0 32.5 22.75"><path d="M27.625-11.375a4.061,4.061,0,0,0,4.063-4.062A4.061,4.061,0,0,0,27.625-19.5a4.061,4.061,0,0,0-4.062,4.063A4.061,4.061,0,0,0,27.625-11.375Zm0-6.5a2.438,2.438,0,0,1,2.438,2.438A2.438,2.438,0,0,1,27.625-13a2.438,2.438,0,0,1-2.437-2.437A2.438,2.438,0,0,1,27.625-17.875ZM16.25-9.75a5.685,5.685,0,0,0,5.688-5.687,5.685,5.685,0,0,0-5.687-5.687,5.685,5.685,0,0,0-5.687,5.688A5.685,5.685,0,0,0,16.25-9.75Zm0-9.75a4.068,4.068,0,0,1,4.063,4.063,4.068,4.068,0,0,1-4.062,4.063,4.068,4.068,0,0,1-4.062-4.062A4.068,4.068,0,0,1,16.25-19.5ZM28.641-9.75H26.609a3.673,3.673,0,0,0-2.087.655,6.882,6.882,0,0,1,1.29,1.137,2.021,2.021,0,0,1,.8-.168h2.031a2.346,2.346,0,0,1,2.234,2.438.815.815,0,0,0,.813.813.815.815,0,0,0,.813-.812A3.97,3.97,0,0,0,28.641-9.75ZM4.875-11.375a4.061,4.061,0,0,0,4.063-4.062A4.061,4.061,0,0,0,4.875-19.5,4.061,4.061,0,0,0,.813-15.437,4.061,4.061,0,0,0,4.875-11.375Zm0-6.5a2.438,2.438,0,0,1,2.438,2.438A2.438,2.438,0,0,1,4.875-13a2.438,2.438,0,0,1-2.437-2.437A2.438,2.438,0,0,1,4.875-17.875ZM20.318-8.734c-1.7,0-2.118.609-4.068.609s-2.371-.609-4.068-.609A5.6,5.6,0,0,0,7.5-6.353a5.819,5.819,0,0,0-1,3.265V-.812A2.438,2.438,0,0,0,8.938,1.625H23.563A2.438,2.438,0,0,0,26-.812V-3.087a5.819,5.819,0,0,0-1-3.265A5.6,5.6,0,0,0,20.318-8.734ZM24.375-.812A.815.815,0,0,1,23.563,0H8.938a.815.815,0,0,1-.812-.812V-3.087a4.219,4.219,0,0,1,.716-2.356,3.974,3.974,0,0,1,3.336-1.666c1.391,0,1.889.609,4.073.609s2.681-.609,4.068-.609a3.974,3.974,0,0,1,3.336,1.666,4.219,4.219,0,0,1,.716,2.356V-.812ZM7.978-9.095A3.7,3.7,0,0,0,5.891-9.75H3.859A3.97,3.97,0,0,0,0-5.687a.815.815,0,0,0,.813.813.815.815,0,0,0,.813-.812A2.346,2.346,0,0,1,3.859-8.125H5.891a2.021,2.021,0,0,1,.8.168A7.045,7.045,0,0,1,7.978-9.095Z" transform="translate(0 21.125)" fill="#0e3b6e"/></svg>