<svg xmlns="http://www.w3.org/2000/svg" width="22.38" height="23.25" viewBox="0 0 22.38 23.25">
  <path id="Path_6844" data-name="Path 6844" d="M22.626-6.971,21.1-7.854A11.036,11.036,0,0,0,21.17-9a11.036,11.036,0,0,0-.072-1.146l1.529-.883a1.122,1.122,0,0,0,.518-1.289,11.6,11.6,0,0,0-2.7-4.669,1.125,1.125,0,0,0-1.38-.2l-1.526.881a10.933,10.933,0,0,0-1.985-1.147v-1.763a1.126,1.126,0,0,0-.866-1.1,11.708,11.708,0,0,0-5.38,0,1.126,1.126,0,0,0-.866,1.1v1.763a10.93,10.93,0,0,0-1.985,1.147l-1.526-.881a1.125,1.125,0,0,0-1.38.2,11.605,11.605,0,0,0-2.7,4.669,1.122,1.122,0,0,0,.518,1.289l1.529.883A11.036,11.036,0,0,0,2.83-9,11.036,11.036,0,0,0,2.9-7.854l-1.529.883A1.122,1.122,0,0,0,.856-5.682a11.605,11.605,0,0,0,2.7,4.669,1.125,1.125,0,0,0,1.38.2l1.526-.881A10.93,10.93,0,0,0,8.444-.547V1.216a1.126,1.126,0,0,0,.866,1.1,11.708,11.708,0,0,0,5.38,0,1.126,1.126,0,0,0,.866-1.1V-.547a10.936,10.936,0,0,0,1.985-1.147l1.526.881a1.125,1.125,0,0,0,1.38-.2,11.605,11.605,0,0,0,2.7-4.669A1.122,1.122,0,0,0,22.626-6.971ZM19.557-2.262,17.386-3.516a8.1,8.1,0,0,1-3.33,1.925V.916A12.251,12.251,0,0,1,12,1.126,12.251,12.251,0,0,1,9.944.916V-1.591a8.1,8.1,0,0,1-3.33-1.925L4.443-2.262A10.125,10.125,0,0,1,2.384-5.823L4.555-7.076a8.167,8.167,0,0,1,0-3.847L2.384-12.177a10.132,10.132,0,0,1,2.059-3.561l2.171,1.254a8.087,8.087,0,0,1,3.33-1.925v-2.507A12.232,12.232,0,0,1,12-19.126a12.232,12.232,0,0,1,2.056.21v2.507a8.088,8.088,0,0,1,3.33,1.925l2.171-1.254a10.132,10.132,0,0,1,2.059,3.561l-2.172,1.253a8.167,8.167,0,0,1,0,3.847l2.172,1.253A10.125,10.125,0,0,1,19.557-2.262ZM12-13.5A4.505,4.505,0,0,0,7.5-9,4.505,4.505,0,0,0,12-4.5,4.505,4.505,0,0,0,16.5-9,4.505,4.505,0,0,0,12-13.5ZM12-6A3,3,0,0,1,9-9a3,3,0,0,1,3-3,3,3,0,0,1,3,3A3,3,0,0,1,12-6Z" transform="translate(-0.81 20.625)" fill="#fff"/>
</svg>
