<svg xmlns="http://www.w3.org/2000/svg" width="40" height="40.001" viewBox="0 0 40 40.001"><g transform="translate(-0.001)"><g transform="translate(17.918)"><path d="M236.836,390.687a20.792,20.792,0,0,0,16.411-8.005H242.273C240.856,387.4,240.065,390.687,236.836,390.687Z" transform="translate(-235.589 -350.686)" fill="#c42126"/><path d="M222.671,473.259h0Z" transform="translate(-222.659 -433.294)" fill="#c42126"/><path d="M242.273,8.005h10.974A20.8,20.8,0,0,0,236.836,0C240.065,0,240.856,3.283,242.273,8.005Z" transform="translate(-235.589)" fill="#c42126"/><path d="M222.659.416h0Z" transform="translate(-222.659 -0.379)" fill="#c42126"/></g><path d="M309.607,90.991H298.632a44.14,44.14,0,0,1,0,23.99h10.974a18.469,18.469,0,0,0,0-23.99Z" transform="translate(-274.03 -82.986)" fill="#ffc40c"/><g transform="translate(18.791)"><path d="M224.026,473.3q-.622,0-1.236-.036C223.205,473.288,223.618,473.3,224.026,473.3Z" transform="translate(-222.79 -433.3)" fill="#c42126"/><path d="M222.79.037Q223.4,0,224.026,0C223.618,0,223.205.013,222.79.037Z" transform="translate(-222.79)" fill="#c42126"/></g><g transform="translate(4.427)"><path d="M73.688,382.682H50.309a20.8,20.8,0,0,0,15.163,7.969h.012q.614.035,1.236.036C69.948,390.687,72.271,387.4,73.688,382.682Z" transform="translate(-50.309 -350.686)" fill="#d32030"/><path d="M50.309,8.005H73.688C72.271,3.283,69.948,0,66.719,0Q66.1,0,65.483.037h-.012A20.8,20.8,0,0,0,50.309,8.005Z" transform="translate(-50.309)" fill="#d32030"/></g><path d="M0,102.986a18.6,18.6,0,0,0,4.426,11.995H27.806a44.14,44.14,0,0,0,0-23.99H4.427A18.6,18.6,0,0,0,0,102.986Z" transform="translate(0 -82.986)" fill="#ffd034"/><g transform="translate(-81.95 -185.47)"><path d="M215.42,220.1l.7-2.874a.437.437,0,0,0-.457-.516h-.5a.436.436,0,0,0-.457.516Z" transform="translate(-113.718 -15.316)" fill="#c8414b"/><rect width="1.663" height="6.403" transform="translate(100.87 203.273)" fill="#f5f5f5"/><rect width="2.494" height="0.753" transform="translate(100.455 202.52)" fill="#fab446"/><g transform="translate(88.517 201.39)"><rect width="4.156" height="0.753" transform="translate(10.275 3.39)" fill="#c8414b"/><path d="M210.981,275.566l-2.494-.753v-.753l2.494.753Z" transform="translate(-196.549 -269.162)" fill="#c8414b"/><path d="M69.376,220.1l.7-2.874a.436.436,0,0,0-.457-.516h-.5a.436.436,0,0,0-.457.516Z" transform="translate(-68.66 -216.706)" fill="#c8414b"/></g><path d="M102.219,229.941a.8.8,0,0,0-.831.753v4.9c0,.915.943,2.637,4.156,2.637s4.156-1.721,4.156-2.637v-4.9a.8.8,0,0,0-.831-.753Z" transform="translate(-10.077 -27.421)" fill="#f5f5f5"/><g transform="translate(91.311 202.52)"><path d="M105.543,233.708h-4.156v-2.975a.791.791,0,0,1,.791-.791h3.365Z" transform="translate(-101.387 -229.941)" fill="#c8414b"/><path d="M150.069,274.059h4.156v1.788a1.978,1.978,0,0,1-1.978,1.978h-.2a1.978,1.978,0,0,1-1.978-1.978v-1.788Z" transform="translate(-145.913 -270.292)" fill="#c8414b"/></g><path d="M101.387,274.059h4.156v1.788a1.978,1.978,0,0,1-1.978,1.978h-.2a1.978,1.978,0,0,1-1.978-1.978Z" transform="translate(-10.076 -67.772)" fill="#fab446"/><g transform="translate(92.142 206.287)"><path d="M131.428,277.44v-3.381H130.6v3.729A2.163,2.163,0,0,0,131.428,277.44Z" transform="translate(-128.934 -274.059)" fill="#c8414b"/><path d="M111.955,277.788v-3.729h-.831v3.382A2.163,2.163,0,0,0,111.955,277.788Z" transform="translate(-111.124 -274.059)" fill="#c8414b"/></g><rect width="2.494" height="0.753" transform="translate(92.142 204.78)" fill="#ffb441"/><g transform="translate(92.142 203.273)"><rect width="2.494" height="0.753" transform="translate(0 0)" fill="#fab446"/><rect width="1.663" height="1.365" transform="translate(0.416 0.448)" fill="#fab446"/></g><rect width="1.663" height="6.403" transform="translate(88.402 203.273)" fill="#f5f5f5"/><g transform="translate(87.986 202.52)"><rect width="2.494" height="0.753" transform="translate(0 6.78)" fill="#fab446"/><rect width="2.494" height="0.753" transform="translate(0 0)" fill="#fab446"/></g><rect width="3.325" height="0.753" transform="translate(87.57 210.054)" fill="#5064aa"/><rect width="2.494" height="0.753" transform="translate(100.87 209.3)" fill="#fab446"/><rect width="3.325" height="0.753" transform="translate(100.04 210.054)" fill="#5064aa"/><rect width="4.988" height="0.753" transform="translate(92.974 201.767)" fill="#fab446"/><rect width="0.831" height="2.26" transform="translate(95.052 199.507)" fill="#ffb441"/><g transform="translate(91.727 198.377)"><path d="M126.976,183.672a1.135,1.135,0,1,1,1.247-1.13A1.194,1.194,0,0,1,126.976,183.672Zm0-1.507a.379.379,0,1,0,.416.377A.4.4,0,0,0,126.976,182.165Z" transform="translate(-124.066 -181.412)" fill="#f5f5f5"/><path d="M146.448,183.672a1.135,1.135,0,1,1,1.247-1.13A1.194,1.194,0,0,1,146.448,183.672Zm0-1.507a.379.379,0,1,0,.416.377A.4.4,0,0,0,146.448,182.165Z" transform="translate(-141.876 -181.412)" fill="#f5f5f5"/><path d="M165.921,192.5a1.135,1.135,0,1,1,1.247-1.13A1.194,1.194,0,0,1,165.921,192.5Zm0-1.507a.379.379,0,1,0,.416.377A.4.4,0,0,0,165.921,190.989Z" transform="translate(-159.686 -189.483)" fill="#f5f5f5"/><path d="M107.5,192.5a1.135,1.135,0,1,1,1.247-1.13A1.194,1.194,0,0,1,107.5,192.5Zm0-1.507a.379.379,0,1,0,.416.377A.4.4,0,0,0,107.5,190.989Z" transform="translate(-106.256 -189.483)" fill="#f5f5f5"/></g><path d="M161.468,283.635v.377a.418.418,0,0,1-.831,0v-.377h.831m.831-.753h-2.494v1.13a1.253,1.253,0,0,0,2.494,0v-1.13Z" transform="translate(-63.506 -75.842)" fill="#fab446"/><path d="M165.544,241.024h-.08a.791.791,0,0,1-.791-.791v-.677a.791.791,0,0,1,.791-.791h.08a.791.791,0,0,1,.791.791v.677A.791.791,0,0,1,165.544,241.024Z" transform="translate(-67.959 -35.491)" fill="#ffa0d2"/><ellipse cx="1.247" cy="1.13" rx="1.247" ry="1.13" transform="translate(94.221 205.157)" fill="#5064aa"/><rect width="0.831" height="2.26" transform="translate(95.052 198)" fill="#fab446"/><path d="M111.955,196.907l-.831-.753.487-.441a4.234,4.234,0,0,1,2.838-1.065h0a4.234,4.234,0,0,1,2.838,1.065l.487.441-.831.753Z" transform="translate(-18.982 4.86)" fill="#c8414b"/><g transform="translate(93.39 200.636)"><ellipse cx="0.416" cy="0.377" rx="0.416" ry="0.377" transform="translate(1.662 0)" fill="#ffd250"/><ellipse cx="0.416" cy="0.377" rx="0.416" ry="0.377" transform="translate(0 0)" fill="#ffd250"/><ellipse cx="0.416" cy="0.377" rx="0.416" ry="0.377" transform="translate(3.325 0)" fill="#ffd250"/></g><g transform="translate(87.986 204.78)"><rect width="4.156" height="0.753" transform="translate(0 0)" fill="#c8414b"/><path d="M62.442,275.566l2.494-.753v-.753l-2.494.753Z" transform="translate(-62.442 -272.552)" fill="#c8414b"/></g></g></g></svg>