<svg xmlns="http://www.w3.org/2000/svg" width="26" height="19.5" viewBox="0 0 26 19.5"><path d="M25.594-1.625H1.625V-19.094a.406.406,0,0,0-.406-.406H.406A.406.406,0,0,0,0-19.094V-.812A.812.812,0,0,0,.813,0H25.594A.406.406,0,0,0,26-.406v-.812A.406.406,0,0,0,25.594-1.625ZM4.994-9.393a.406.406,0,0,0,0,.574l.574.574a.406.406,0,0,0,.574,0L9.834-11.9l4.3,4.3a.813.813,0,0,0,1.149,0l4.75-4.75,2.236,2.236a1.207,1.207,0,0,0,.863.364,1.233,1.233,0,0,0,1.242-1.236v-6.067a.822.822,0,0,0-.822-.822H17.486a1.233,1.233,0,0,0-.872,2.105l2.27,2.27L14.709-9.324l-4.3-4.3a.812.812,0,0,0-1.146,0ZM18.432-16.25H22.75v4.318Z" transform="translate(0 19.5)" fill="#0e3b6e"/></svg>