<svg xmlns="http://www.w3.org/2000/svg" width="17.5" height="20" viewBox="0 0 17.5 20">
  <path id="Path_6813" data-name="Path 6813" d="M3.75-3.75H3.566a4.334,4.334,0,0,0-1.387.266A8.124,8.124,0,0,1,0-3.125a8.124,8.124,0,0,1-2.18-.36,4.318,4.318,0,0,0-1.384-.265H-3.75a5,5,0,0,0-5,5A1.25,1.25,0,0,0-7.5,2.5h15A1.25,1.25,0,0,0,8.75,1.25,5,5,0,0,0,3.75-3.75ZM-6.812.625a3.265,3.265,0,0,1,3.062-2.5h.185a2.525,2.525,0,0,1,.781.166A10.371,10.371,0,0,0,0-1.251,10.371,10.371,0,0,0,2.78-1.709a2.554,2.554,0,0,1,.786-.167H3.75A3.265,3.265,0,0,1,6.812.624Zm.223-9.375a.913.913,0,0,0,.912-.911V-10A5.683,5.683,0,0,1,0-15.677,5.683,5.683,0,0,1,5.677-10v.495A2.687,2.687,0,0,1,2.995-6.823H2.077A1.581,1.581,0,0,0,.6-8.021H-.623A1.511,1.511,0,0,0-2.134-6.51,1.511,1.511,0,0,0-.623-5H2.995A4.514,4.514,0,0,0,7.5-9.505V-10A7.508,7.508,0,0,0,0-17.5,7.508,7.508,0,0,0-7.5-10v.339A.913.913,0,0,0-6.589-8.75ZM0-12.5A2.5,2.5,0,0,1,2.5-10a2.915,2.915,0,0,1-.342,1.239,2.774,2.774,0,0,1,.714.687h.123a1.409,1.409,0,0,0,1.17-.653A4.328,4.328,0,0,0,4.375-10,4.377,4.377,0,0,0,0-14.375,4.377,4.377,0,0,0-4.375-10,4.336,4.336,0,0,0-3.281-7.135,3.193,3.193,0,0,1-2.166-8.777,2.917,2.917,0,0,1-2.5-10,2.5,2.5,0,0,1,0-12.5Z" transform="translate(8.75 17.5)" fill="#0e3b6e"/>
</svg>
