<svg xmlns="http://www.w3.org/2000/svg" width="26.003" height="22.75" viewBox="0 0 26.003 22.75"><path d="M13-19.5c6.271,0,11.375,4.012,11.375,8.938S19.271-1.625,13-1.625a14.007,14.007,0,0,1-4.225-.65L8-2.519l-.66.467A10.957,10.957,0,0,1,2.133-.041,13.7,13.7,0,0,0,4.2-3.575l.361-.95-.7-.741a7.675,7.675,0,0,1-2.245-5.3C1.625-15.488,6.729-19.5,13-19.5Zm0-1.625c-7.18,0-13,4.728-13,10.563A9.335,9.335,0,0,0,2.686-4.149,12.887,12.887,0,0,1,.33-.432a1.219,1.219,0,0,0,.884,2.057A12.322,12.322,0,0,0,8.277-.726,15.743,15.743,0,0,0,13,0c7.18,0,13-4.728,13-10.562S20.18-21.125,13-21.125Z" transform="translate(0.003 21.125)" fill="#0e3b6e"/></svg>