<svg xmlns="http://www.w3.org/2000/svg" width="40.603" height="40.603" viewBox="0 0 40.603 40.603">
  <g id="Group_714" data-name="Group 714" transform="translate(-38.886 -464.751)">
    <g id="usa-today" transform="translate(38.886 464.751)">
      <g id="Group_89" data-name="Group 89" transform="translate(0.084)">
        <rect id="Rectangle_56" data-name="Rectangle 56" width="40.422" height="0.001" transform="translate(0.008 22.2)" fill="#c42126"/>
        <rect id="Rectangle_57" data-name="Rectangle 57" width="36.209" height="0.001" transform="translate(2.113 11.118)" fill="#c42126"/>
        <rect id="Rectangle_58" data-name="Rectangle 58" width="39.088" height="0.001" transform="translate(0.673 14.811)" fill="#c42126"/>
        <path id="Path_168" data-name="Path 168" d="M101.779,431.346h0Z" transform="translate(-93.138 -394.371)" fill="#c42126"/>
        <path id="Path_169" data-name="Path 169" d="M224.176,0c-.4,0-.794.014-1.187.037h2.374C224.97.014,224.575,0,224.176,0Z" transform="translate(-203.958)" fill="#c42126"/>
        <rect id="Rectangle_59" data-name="Rectangle 59" width="40.434" height="0.001" transform="translate(0 18.506)" fill="#c42126"/>
      </g>
      <path id="Path_170" data-name="Path 170" d="M290.225,47.218h9.694a20.4,20.4,0,0,0-3.972-3.693h-7.279A19.294,19.294,0,0,1,290.225,47.218Z" transform="translate(-263.923 -39.794)" fill="#e7e7e7"/>
      <path id="Path_171" data-name="Path 171" d="M247.277,4.124h7.279A20.189,20.189,0,0,0,244.021.43H243.4C245.238.662,246.083,2.025,247.277,4.124Z" transform="translate(-222.533 -0.393)" fill="#dc3027"/>
      <path id="Path_172" data-name="Path 172" d="M330.533,133.4a20.165,20.165,0,0,0-1.44-3.693H317.94c.226,1.186.4,2.424.536,3.693Z" transform="translate(-290.687 -118.591)" fill="#e7e7e7"/>
      <path id="Path_173" data-name="Path 173" d="M300.806,90.306h11.78a20.316,20.316,0,0,0-2.41-3.694h-10.29A32.6,32.6,0,0,1,300.806,90.306Z" transform="translate(-274.18 -79.188)" fill="#dc3027"/>
      <path id="Path_174" data-name="Path 174" d="M329.178,219.586h12.295c.058-.625.091-1.258.091-1.9,0-.606-.032-1.2-.084-1.8h-12.3C329.221,217.121,329.22,218.359,329.178,219.586Z" transform="translate(-300.961 -197.387)" fill="#e7e7e7"/>
      <path id="Path_175" data-name="Path 175" d="M331.4,176.5a20.22,20.22,0,0,0-.674-3.693H318.154c.126,1.209.21,2.447.25,3.693Z" transform="translate(-290.882 -157.99)" fill="#dc3027"/>
      <path id="Path_176" data-name="Path 176" d="M315.465,305.769h11.312a20.141,20.141,0,0,0,1.464-3.694H316.012C315.877,303.346,315.694,304.584,315.465,305.769Z" transform="translate(-288.424 -276.181)" fill="#e7e7e7"/>
      <path id="Path_177" data-name="Path 177" d="M333.94,262.681a20.174,20.174,0,0,0,.695-3.693H321.957c-.043,1.247-.129,2.484-.258,3.693Z" transform="translate(-294.123 -236.788)" fill="#dc3027"/>
      <path id="Path_178" data-name="Path 178" d="M296.372,391.954a20.419,20.419,0,0,0,4.031-3.693h-9.525a18.866,18.866,0,0,1-1.587,3.693Z" transform="translate(-264.493 -354.98)" fill="#e7e7e7"/>
      <g id="Group_90" data-name="Group 90" transform="translate(19.442 29.587)">
        <path id="Path_179" data-name="Path 179" d="M303.625,348.861h9.884a20.333,20.333,0,0,0,2.443-3.694H304.557A32.147,32.147,0,0,1,303.625,348.861Z" transform="translate(-297.041 -345.167)" fill="#dc3027"/>
        <path id="Path_180" data-name="Path 180" d="M226.941,473.461l-.123,0Z" transform="translate(-226.818 -462.46)" fill="#dc3027"/>
        <path id="Path_181" data-name="Path 181" d="M236.837,434.987a20.207,20.207,0,0,0,11.576-3.627h-7.347C239.762,433.607,238.9,434.987,236.837,434.987Z" transform="translate(-235.978 -423.972)" fill="#dc3027"/>
      </g>
      <path id="Path_182" data-name="Path 182" d="M228.991,473.523c-.247,0-.491-.006-.736-.014C228.5,473.517,228.747,473.523,228.991,473.523Z" transform="translate(-208.689 -432.92)" fill="#c42126"/>
      <path id="Path_183" data-name="Path 183" d="M74.556,43.525H57.72a20.405,20.405,0,0,0-3.973,3.693H76.114A19.3,19.3,0,0,0,74.556,43.525Z" transform="translate(-49.14 -39.794)" fill="#f3f4f5"/>
      <path id="Path_184" data-name="Path 184" d="M100.092,4.124h16.837c-1.193-2.1-2.711-3.462-4.553-3.694h-1.749A20.187,20.187,0,0,0,100.092,4.124Z" transform="translate(-91.512 -0.393)" fill="#e73625"/>
      <path id="Path_185" data-name="Path 185" d="M8.835,133.4H36.508c-.132-1.269-.31-2.507-.536-3.693h-25.7A20.164,20.164,0,0,0,8.835,133.4Z" transform="translate(-8.078 -118.591)" fill="#f3f4f5"/>
      <path id="Path_186" data-name="Path 186" d="M28.047,86.609a20.327,20.327,0,0,0-2.41,3.694h25.7a32.553,32.553,0,0,0-.92-3.694Z" transform="translate(-23.44 -79.185)" fill="#e73625"/>
      <path id="Path_187" data-name="Path 187" d="M0,217.691c0,.64.033,1.273.091,1.9H28.68c.042-1.228.043-2.465,0-3.693H.086C.034,216.488,0,217.086,0,217.691Z" transform="translate(-0.002 -197.39)" fill="#f3f4f5"/>
      <path id="Path_188" data-name="Path 188" d="M.978,176.5h28.6c-.041-1.247-.124-2.484-.25-3.693H1.651A20.2,20.2,0,0,0,.978,176.5Z" transform="translate(-0.894 -157.99)" fill="#e73625"/>
      <path id="Path_189" data-name="Path 189" d="M36.808,302.072H9.175a20.152,20.152,0,0,0,1.464,3.694H36.262C36.491,304.581,36.673,303.343,36.808,302.072Z" transform="translate(-8.389 -276.179)" fill="#f3f4f5"/>
      <path id="Path_190" data-name="Path 190" d="M1.763,262.681H29.4c.129-1.209.215-2.446.258-3.693H1.068A20.2,20.2,0,0,0,1.763,262.681Z" transform="translate(-0.977 -236.788)" fill="#e73625"/>
      <path id="Path_191" data-name="Path 191" d="M58.784,391.954h16.63A18.86,18.86,0,0,0,77,388.261H54.753A20.41,20.41,0,0,0,58.784,391.954Z" transform="translate(-50.06 -354.98)" fill="#f3f4f5"/>
      <g id="Group_91" data-name="Group 91" transform="translate(2.25 29.587)">
        <path id="Path_192" data-name="Path 192" d="M26.254,345.166A20.34,20.34,0,0,0,28.7,348.86H50.945a32.208,32.208,0,0,0,.932-3.694Z" transform="translate(-26.254 -345.166)" fill="#e73625"/>
        <path id="Path_193" data-name="Path 193" d="M112.51,434.967l.123,0c.244.009.489.014.736.014,2.065,0,3.748-1.381,5.053-3.627H101.793A20.194,20.194,0,0,0,112.51,434.967Z" transform="translate(-95.318 -423.971)" fill="#e73625"/>
      </g>
      <path id="Path_194" data-name="Path 194" d="M20.8.123a20.3,20.3,0,0,0-19.8,18.462H20.8V.123Z" transform="translate(-0.922 -0.112)" fill="#283991"/>
      <g id="Group_92" data-name="Group 92" transform="translate(0.683 1.407)">
        <path id="Path_195" data-name="Path 195" d="M33.4,134.187l.309.952h1l-.811.589.31.953-.81-.589-.81.589.309-.953-.81-.589h1Z" transform="translate(-30.023 -124.092)" fill="#efefef"/>
        <path id="Path_196" data-name="Path 196" d="M33.4,173.438l.309.953h1l-.811.589.31.953-.81-.589-.81.589.309-.953-.81-.589h1Z" transform="translate(-30.023 -159.978)" fill="#efefef"/>
        <path id="Path_197" data-name="Path 197" d="M72.657,75.3l.309.953h1l-.81.589.309.952-.81-.589-.81.589.309-.952-.811-.589h1Z" transform="translate(-65.913 -70.249)" fill="#efefef"/>
        <path id="Path_198" data-name="Path 198" d="M72.657,114.554l.309.953h1l-.81.589.309.953-.81-.589-.81.589.309-.953-.811-.589h1Z" transform="translate(-65.913 -106.141)" fill="#efefef"/>
        <path id="Path_199" data-name="Path 199" d="M72.657,153.812l.309.953h1l-.81.588.309.953-.81-.589-.81.589.309-.953-.811-.588h1Z" transform="translate(-65.913 -142.034)" fill="#efefef"/>
        <path id="Path_200" data-name="Path 200" d="M8.8,165.726l-.31-.953.81-.589h-1l-.022-.07c-.11.34-.209.684-.3,1.033l.014-.011Z" transform="translate(-7.971 -151.454)" fill="#efefef"/>
        <path id="Path_201" data-name="Path 201" d="M37.188,97.421l.81-.589.81.589-.31-.953.81-.589h-1L38,94.926l-.309.952H37.32c-.069.1-.135.208-.2.314l.38.275Z" transform="translate(-34.62 -88.196)" fill="#efefef"/>
        <path id="Path_202" data-name="Path 202" d="M78,48.106l.81.589-.309-.952.81-.589h-.579q-.737.551-1.421,1.166l-.122.375Z" transform="translate(-71.253 -44.518)" fill="#efefef"/>
        <path id="Path_203" data-name="Path 203" d="M116.452,27.7l.81-.589.81.589-.309-.953.81-.589h-1l-.042-.128c-.339.173-.675.354-1,.546l.235.171Z" transform="translate(-107.153 -25.207)" fill="#efefef"/>
        <path id="Path_204" data-name="Path 204" d="M111.916,55.671l.309.952h1l-.81.589.309.953-.81-.589-.81.589.309-.953-.811-.589h1Z" transform="translate(-101.806 -52.306)" fill="#efefef"/>
        <path id="Path_205" data-name="Path 205" d="M111.916,94.929l.309.952h1l-.81.589.309.953-.81-.589-.81.589.309-.953-.811-.589h1Z" transform="translate(-101.806 -88.199)" fill="#efefef"/>
        <path id="Path_206" data-name="Path 206" d="M111.916,134.187l.309.952h1l-.81.589.309.953-.81-.589-.81.589.309-.953-.811-.589h1Z" transform="translate(-101.806 -124.092)" fill="#efefef"/>
        <path id="Path_207" data-name="Path 207" d="M111.916,173.438l.309.953h1l-.81.589.309.953-.81-.589-.81.589.309-.953-.811-.589h1Z" transform="translate(-101.806 -159.978)" fill="#efefef"/>
        <path id="Path_208" data-name="Path 208" d="M151.174,36.038l.309.953h1l-.81.589.309.952-.81-.589-.811.589.31-.952-.811-.589h1Z" transform="translate(-137.699 -34.356)" fill="#efefef"/>
        <path id="Path_209" data-name="Path 209" d="M151.174,75.3l.309.953h1l-.81.589.309.952-.81-.589-.811.589.31-.952-.811-.589h1Z" transform="translate(-137.699 -70.249)" fill="#efefef"/>
        <path id="Path_210" data-name="Path 210" d="M151.174,114.554l.309.953h1l-.81.589.309.953-.81-.589-.811.589.31-.953-.811-.589h1Z" transform="translate(-137.699 -106.141)" fill="#efefef"/>
        <path id="Path_211" data-name="Path 211" d="M151.174,153.812l.309.953h1l-.81.588.309.953-.81-.589-.811.589.31-.953-.811-.588h1Z" transform="translate(-137.699 -142.034)" fill="#efefef"/>
        <path id="Path_212" data-name="Path 212" d="M190.432,16.413l.309.953h1l-.81.589.309.953-.81-.589-.811.589.31-.953-.811-.589h1Z" transform="translate(-173.592 -16.413)" fill="#efefef"/>
        <path id="Path_213" data-name="Path 213" d="M190.432,55.671l.309.952h1l-.81.589.309.953-.81-.589-.811.589.31-.953-.811-.589h1Z" transform="translate(-173.592 -52.306)" fill="#efefef"/>
        <path id="Path_214" data-name="Path 214" d="M190.432,94.929l.309.952h1l-.81.589.309.953-.81-.589-.811.589.31-.953-.811-.589h1Z" transform="translate(-173.592 -88.199)" fill="#efefef"/>
        <path id="Path_215" data-name="Path 215" d="M190.432,134.187l.309.952h1l-.81.589.309.953-.81-.589-.811.589.31-.953-.811-.589h1Z" transform="translate(-173.592 -124.092)" fill="#efefef"/>
        <path id="Path_216" data-name="Path 216" d="M190.432,173.438l.309.953h1l-.81.589.309.953-.81-.589-.811.589.31-.953-.811-.589h1Z" transform="translate(-173.592 -159.978)" fill="#efefef"/>
      </g>
    </g>
  </g>
</svg>
