<svg xmlns="http://www.w3.org/2000/svg" width="12.25" height="14" viewBox="0 0 12.25 14"><path d="M8.575-4.375c-.785,0-1.162.438-2.45.438s-1.662-.437-2.45-.437A3.676,3.676,0,0,0,0-.7V.438A1.313,1.313,0,0,0,1.313,1.75h9.625A1.313,1.313,0,0,0,12.25.438V-.7A3.676,3.676,0,0,0,8.575-4.375Zm2.8,4.813a.439.439,0,0,1-.437.438H1.313A.439.439,0,0,1,.875.438V-.7a2.8,2.8,0,0,1,2.8-2.8,13.058,13.058,0,0,0,2.45.438A13.106,13.106,0,0,0,8.575-3.5a2.8,2.8,0,0,1,2.8,2.8ZM6.125-5.25a3.5,3.5,0,0,0,3.5-3.5,3.5,3.5,0,0,0-3.5-3.5,3.5,3.5,0,0,0-3.5,3.5A3.5,3.5,0,0,0,6.125-5.25Zm0-6.125A2.629,2.629,0,0,1,8.75-8.75,2.629,2.629,0,0,1,6.125-6.125,2.629,2.629,0,0,1,3.5-8.75,2.629,2.629,0,0,1,6.125-11.375Z" transform="translate(0 12.25)" fill="#0e3b6e"/></svg>