<svg xmlns="http://www.w3.org/2000/svg" width="20" height="20" viewBox="0 0 20 20">
  <path id="Path_6814" data-name="Path 6814" d="M2.734-12.972,4.9-16.143a1.113,1.113,0,0,0,.1-.419.938.938,0,0,0-.935-.937H-4.063A.938.938,0,0,0-5-16.562a1.112,1.112,0,0,0,.1.419l2.167,3.171C-10.384-8.295-10-2.186-10-1.406A4.109,4.109,0,0,0-5.712,2.5H5.713A4.109,4.109,0,0,0,10-1.406C10-2.171,10.341-8.32,2.734-12.972Zm-.458-2.653L.784-13.437H-.784l-1.493-2.187ZM8.123-1.406A2.247,2.247,0,0,1,5.713.625H-5.712A2.248,2.248,0,0,1-8.121-1.406C-8.154-4.57-6.847-8.26-1.445-11.562H1.448C6.823-8.274,8.149-4.573,8.123-1.406ZM1.157-5.362-.757-5.93a.544.544,0,0,1-.374-.534.531.531,0,0,1,.5-.555H.565a1.235,1.235,0,0,1,.544.156.408.408,0,0,0,.2.061.4.4,0,0,0,.233-.09l.5-.475a.381.381,0,0,0,.105-.243.376.376,0,0,0-.131-.265A2.9,2.9,0,0,0,.676-8.351v-.687a.34.34,0,0,0-.339-.337H-.345a.34.34,0,0,0-.339.337v.681A1.885,1.885,0,0,0-2.5-6.46,1.906,1.906,0,0,0-1.157-4.634l1.914.568a.543.543,0,0,1,.374.534.531.531,0,0,1-.5.555h-1.2a1.23,1.23,0,0,1-.544-.156.409.409,0,0,0-.2-.06.4.4,0,0,0-.234.09l-.5.471a.382.382,0,0,0-.105.243.376.376,0,0,0,.131.265A2.9,2.9,0,0,0-.68-1.649v.686a.34.34,0,0,0,.339.337H.341A.34.34,0,0,0,.68-.963v-.677a1.891,1.891,0,0,0,1.82-1.9A1.905,1.905,0,0,0,1.157-5.362Z" transform="translate(10 17.5)" fill="#0e3b6e"/>
</svg>
